# xmcd CD database file
#
# Track frame offsets:
#	150
#	26605
#	41249
#	59371
#	68912
#	85161
#	104499
#	119321
#	135737
#	148418
#	158502
#
# Disc length: 2295 seconds
#
# Revision: 0
# Processed by: cddbd v1.5.2PL0 Copyright (c) Steve Scherf et al.
# Submitted via: CDex 1.70beta2
#
DISCID=9e08f50b
DTITLE=Yesterday's Wine - Where Did the Trains Go?
DYEAR=1900
DGENRE=Country
TTITLE0=A Very Special Woman
TTITLE1=Where Did the Trains Go?
TTITLE2=Borderline Fool
TTITLE3=Cajun Fiddle
TTITLE4=Times We Had BeforE
TTITLE5=Peacful Easy Feeling
TTITLE6=Cajun Moon
TTITLE7=Fiddle Medley
TTITLE8=Speed of the Sound of Lonliness
TTITLE9=Down the Line
TTITLE10=Come Sundown
EXTD=
EXTT0=
EXTT1=
EXTT2=
EXTT3=
EXTT4=
EXTT5=
EXTT6=
EXTT7=
EXTT8=
EXTT9=
EXTT10=
PLAYORDER=
